<?xml version="1.0" encoding="utf-8"?>
<!-- Generator: Adobe Illustrator 25.0.0, SVG Export Plug-In . SVG Version: 6.00 Build 0)  -->
<svg version="1.1" id="Ebene_1" xmlns="http://www.w3.org/2000/svg" xmlns:xlink="http://www.w3.org/1999/xlink" x="0px" y="0px"
	 width="232.4px" height="164.9px" viewBox="0 0 232.4 164.9" style="enable-background:new 0 0 232.4 164.9;" xml:space="preserve"
	>
<style type="text/css">
	.st0{fill:#FFFFFF;}
	.st1{fill:#E1251B;}
</style>
<rect x="9.4" y="29" class="st0" width="60.1" height="31"/>
<polygon class="st1" points="56,29 56,50.3 65,50.3 65,56.3 48.7,56.3 48.7,29 46.5,29 46.5,34.3 41,34.3 41,56.3 33.6,56.3 
	33.6,34.3 28.1,34.3 28.1,29 26.1,29 26.1,34.1 16.7,34.1 16.7,38.9 25.5,38.9 25.5,44.7 16.7,44.7 16.7,50.3 26.4,50.3 26.4,56.3 
	9.4,56.3 9.4,29 0.5,29 0.5,102.1 232.4,164.9 232.4,29 "/>
<g>
	<path class="st0" d="M20.9,83.4c-2.8,3-7.6,3.2-10.6,0.3c0,0-0.1-0.1-0.1-0.1c-1.9-1.9-1.9-4-1.9-8.3c0-4.4,0-6.4,1.9-8.3
		c1.4-1.4,3.3-2.2,5.3-2.1c2.4,0,4.6,1,6.2,2.8l-1.4,1.4c-1.1-1.4-2.9-2.3-4.7-2.3c-1.3,0-2.6,0.5-3.5,1.4c-1.3,1.3-1.4,2.7-1.4,7
		s0.1,5.7,1.4,7.1c2,2,5.3,1.9,7.2-0.1c0.1-0.1,0.1-0.1,0.2-0.2c0.8-1.1,1.2-2.4,1.1-3.7v-1.5h-5v-1.9h7.2v3.3
		C22.8,80.1,22.2,82,20.9,83.4"/>
</g>
<polygon class="st0" points="27.7,85.6 27.7,65 29.9,65 29.9,83.7 40.4,83.7 40.4,85.6 "/>
<g>
	<path class="st0" d="M53.6,68.3c-2-1.9-5.1-1.9-7.1,0c-1.3,1.3-1.4,2.7-1.4,7c0,4.3,0.1,5.7,1.4,7c2,2,5.1,2,7.1,0
		c1.3-1.3,1.4-2.7,1.4-7C55,71,54.9,69.7,53.6,68.3 M55.3,83.7c-2.9,2.8-7.6,2.8-10.5,0c-1.9-1.9-1.9-4-1.9-8.3c0-4.4,0-6.4,1.9-8.3
		c2.9-2.9,7.6-2.9,10.5,0c1.9,1.9,1.9,4,1.9,8.3C57.3,79.7,57.3,81.7,55.3,83.7"/>
	<path class="st0" d="M70.2,76.1h-5.7v7.5h5.7c2.1,0.2,3.9-1.3,4.2-3.4c0.2-2.1-1.3-3.9-3.4-4.2C70.8,76.1,70.5,76.1,70.2,76.1
		 M70,67h-5.4v7.1H70c2.3,0,4-1.1,4-3.6C74,68.1,72.3,67,70,67 M70.5,85.6h-8V65h7.8c3.6,0,6.1,2.1,6.1,5.5c0,2-1.2,3.8-3,4.5
		c2.1,0.7,3.4,2.7,3.3,4.9C76.5,83.7,74.1,85.6,70.5,85.6"/>
</g>
<path class="st0" d="M87.6,68.2l-3.9,10.9h7.7L87.6,68.2z M93.7,85.6L92.1,81h-9l-1.6,4.6h-2.3L86.7,65h1.8L96,85.6H93.7z"/>
<polygon class="st0" points="99.4,85.6 99.4,65 101.6,65 101.6,83.7 112.1,83.7 112.1,85.6 "/>
<g>
	<path class="st0" d="M99.3,14.5h0.9v-7h7.2V6.8h-7.2V1.1h8V0.3h-8.9V14.5z M85.2,4.8c0.3-0.8,0.6-1.5,1.1-2.1
		c0.5-0.6,1.1-1.1,1.8-1.4c0.7-0.4,1.5-0.5,2.5-0.5c0.9,0,1.7,0.2,2.5,0.5c0.7,0.4,1.3,0.8,1.8,1.4c0.5,0.6,0.9,1.3,1.1,2.1
		c0.3,0.8,0.4,1.7,0.4,2.6s-0.1,1.8-0.4,2.6c-0.3,0.8-0.6,1.5-1.1,2.1c-0.5,0.6-1.1,1.1-1.8,1.4c-0.7,0.4-1.5,0.5-2.5,0.5
		c-0.9,0-1.7-0.2-2.5-0.5c-0.7-0.4-1.3-0.8-1.8-1.4c-0.5-0.6-0.9-1.3-1.1-2.1c-0.3-0.8-0.4-1.7-0.4-2.6S85,5.6,85.2,4.8 M96.9,4.5
		c-0.3-0.9-0.7-1.7-1.3-2.4S94.4,1,93.5,0.6C92.7,0.2,91.7,0,90.7,0c-1.1,0-2,0.2-2.8,0.6C87,1,86.3,1.5,85.7,2.1
		c-0.6,0.7-1,1.5-1.3,2.4C84.1,5.4,84,6.4,84,7.4c0,1,0.1,2,0.5,2.9c0.3,0.9,0.7,1.7,1.3,2.4c0.6,0.7,1.3,1.2,2.1,1.6
		c0.8,0.4,1.8,0.6,2.8,0.6c1.1,0,2-0.2,2.8-0.6c0.8-0.4,1.5-0.9,2.1-1.6c0.6-0.7,1-1.5,1.3-2.4c0.3-0.9,0.5-1.9,0.5-2.9
		C97.4,6.4,97.2,5.4,96.9,4.5 M67.5,7.3V1.1h5c0.5,0,0.9,0.1,1.4,0.2c0.4,0.1,0.8,0.3,1.1,0.5c0.3,0.2,0.6,0.5,0.8,0.9
		C76,3.1,76.1,3.5,76.1,4c0,0.6-0.1,1.1-0.3,1.5c-0.2,0.4-0.4,0.7-0.7,1C74.8,6.8,74.4,7,74,7.1c-0.4,0.1-0.9,0.2-1.4,0.2H67.5z
		 M66.6,14.5h0.9V8h5c0.8,0,1.5,0.1,1.9,0.3c0.5,0.2,0.8,0.5,1,0.9c0.2,0.4,0.3,0.8,0.4,1.3c0,0.5,0.1,0.9,0.1,1.4
		c0,0.5,0,0.9,0,1.4c0,0.4,0.1,0.8,0.3,1.2h1C77.1,14.3,77,14.2,77,14c-0.1-0.2-0.1-0.4-0.1-0.6c0-0.2,0-0.5,0-0.7v-0.8
		c0-0.5,0-0.9-0.1-1.4c-0.1-0.5-0.2-0.9-0.4-1.3c-0.2-0.4-0.5-0.7-0.8-1c-0.4-0.3-0.9-0.4-1.5-0.5v0c1-0.2,1.7-0.6,2.2-1.2
		C76.7,5.7,77,4.9,77,4c0-0.7-0.1-1.3-0.3-1.7c-0.2-0.5-0.6-0.8-1-1.1c-0.4-0.3-0.9-0.5-1.4-0.6c-0.5-0.1-1.1-0.2-1.7-0.2h-5.9V14.5
		z M55.6,14.5h9.6v-0.8h-8.7V7.5h8.1V6.8h-8.1V1.1h8.6V0.3h-9.5V14.5z M44,13.7V7.5h4.8c0.5,0,0.9,0,1.4,0.1s0.9,0.2,1.3,0.5
		c0.4,0.2,0.7,0.5,1,0.9c0.3,0.4,0.4,0.9,0.4,1.5c0,1.1-0.4,1.9-1.1,2.4c-0.7,0.5-1.7,0.8-3,0.8H44z M44,6.8V1.1h4.8
		c0.5,0,0.9,0,1.4,0.1c0.4,0.1,0.8,0.3,1.1,0.5c0.3,0.2,0.6,0.5,0.8,0.9c0.2,0.3,0.3,0.8,0.3,1.3c0,0.9-0.3,1.6-0.9,2.1
		c-0.6,0.5-1.5,0.8-2.7,0.8H44z M43.1,14.5h5.7c0.7,0,1.4-0.1,2-0.3c0.6-0.2,1.1-0.4,1.6-0.8s0.8-0.7,1-1.2c0.2-0.5,0.4-1.1,0.4-1.7
		c0-0.7-0.1-1.3-0.4-1.8c-0.3-0.5-0.6-0.8-1-1.1c-0.4-0.3-0.7-0.4-1.1-0.5C50.8,7.1,50.6,7,50.5,7l0,0c0.4-0.1,0.8-0.2,1.1-0.3
		c0.3-0.2,0.6-0.4,0.9-0.7c0.2-0.3,0.4-0.6,0.6-0.9c0.1-0.3,0.2-0.7,0.2-1.1c0-0.4-0.1-0.9-0.2-1.3c-0.2-0.4-0.4-0.8-0.7-1.2
		c-0.3-0.3-0.8-0.6-1.4-0.8c-0.6-0.2-1.3-0.3-2.1-0.3h-5.7V14.5z M27.1,14.5H28V1.4h0l5.4,13.1h0.9l5.4-13.1h0v13.1h0.9V0.3h-1.2
		l-5.5,13.2h0L28.3,0.3h-1.2V14.5z M16,14.5h9.6v-0.8h-8.7V7.5H25V6.8h-8.1V1.1h8.6V0.3H16V14.5z M0,14.5h0.9V1.4h0l5.4,13.1h0.9
		l5.4-13.1h0v13.1h0.9V0.3h-1.2L6.8,13.5h0L1.2,0.3H0V14.5z"/>
</g>
</svg>
